<?xml version="1.0" encoding="UTF-8"?>
<svg width="125px" height="20px" viewBox="0 0 125 20" version="1.1" xmlns="http://www.w3.org/2000/svg" xmlns:xlink="http://www.w3.org/1999/xlink">
    <!-- Generator: Sketch 50.2 (55047) - http://www.bohemiancoding.com/sketch -->
    <title>axur_marca</title>
    <desc>Created with Sketch.</desc>
    <defs></defs>
    <g id="Symbols" stroke="none" stroke-width="1" fill="none" fill-rule="evenodd">
        <g id="axur_marca" fill-rule="nonzero">
            <g>
                <path d="M124.438599,18.3187886 C124.521486,18.4116913 124.567294,18.5318428 124.567294,18.6563464 C124.567294,18.9363781 124.340283,19.1633886 124.060252,19.1633886 L119.965493,19.1633886 C119.820991,19.1633886 119.683353,19.1017335 119.58715,18.993909 L114.049526,12.787296 L109.143025,12.787296 L109.142743,18.6563464 C109.142731,18.9363693 108.915724,19.1633663 108.635701,19.1633663 L105.464404,19.1633809 C105.184375,19.1633809 104.957366,18.936375 104.957361,18.6563464 L104.957066,0.515507659 C104.957066,0.515504076 104.957066,0.515500493 104.957066,0.51549691 C104.957068,0.235465207 105.184079,0.00845600485 105.464111,0.00845766704 L115.397202,0.00852737538 C120.504391,0.00852737538 123.804231,2.53730597 123.804231,6.4506587 C123.804231,7.65670448 123.404753,11.0756064 119.089773,12.3236259 L124.438599,18.3187886 Z M96.8000076,10.9992676 L96.8000076,0.520394366 C96.8000076,0.240362662 97.0270183,0.0133521127 97.3070499,0.0133521127 L100.518317,0.0133521127 C100.798349,0.0133521127 101.02536,0.240362662 101.02536,0.520394366 L101.02536,10.9992676 C101.02536,16.3040563 97.1456414,19.731662 91.0135287,19.731662 C84.9033879,19.731662 81.0253597,16.3854648 81.0253597,10.9992676 L81.0253597,0.520394366 C81.0253597,0.240362662 81.2523704,0.0133521127 81.532402,0.0133521127 L84.7436696,0.0133521127 C85.0237014,0.0133521127 85.2507118,0.240362662 85.2507118,0.520394366 L85.2507118,10.9992676 C85.2507118,14.0322254 87.1912752,15.5063099 91.0135287,15.5063099 C94.7431062,15.5063099 96.8000076,13.863493 96.8000076,10.9992676 Z M73.1023766,0.171104508 C73.198618,0.0623010597 73.3369025,2.66839155e-17 73.4821628,0 L77.7692921,2.68955437e-15 C77.8930631,3.6561946e-15 78.01256,0.0452718152 78.1052606,0.12728302 C78.3149958,0.312833248 78.3346017,0.633275428 78.1490515,0.843010662 L70.306402,9.70788732 L78.0739924,18.4462339 C78.1564966,18.5390491 78.2020704,18.6589148 78.2020704,18.7830986 C78.2020704,19.0631303 77.9750597,19.2901408 77.6950282,19.2901408 L73.3983104,19.2901408 C73.2534873,19.2901408 73.1155758,19.2282129 73.0193561,19.1199746 L67.4807682,12.8895775 L61.9461352,19.1198442 C61.8499124,19.2281611 61.711949,19.2901408 61.5670648,19.2901408 L57.2714361,19.2901408 C57.1473014,19.2901408 57.0274797,19.2446032 56.934678,19.1621577 C56.7253293,18.9761713 56.7063907,18.655689 56.8923769,18.4463404 L64.6554161,9.70816901 L56.7880685,0.84360969 C56.7057279,0.750832304 56.6602546,0.631089006 56.6602546,0.507042254 C56.6602546,0.227010549 56.8872651,1.17730096e-15 57.1672969,1.12585997e-15 L61.4609944,9.38216639e-16 C61.6059685,9.11585341e-16 61.7440085,0.0620565161 61.8402361,0.170489667 L67.4807682,6.52647887 L73.1023766,0.171104508 Z M40.0371524,0.266866605 C40.1255699,0.102574764 40.2970699,0.000112676056 40.4836425,0.000112676056 L44.2588146,0.000112676056 C44.4454369,0.000112676056 44.6169738,0.102628563 44.7053699,0.266987969 L54.5346217,18.5430443 C54.5743262,18.6168693 54.5951085,18.6993865 54.5951085,18.7832113 C54.5951085,19.063243 54.368098,19.2902535 54.0880662,19.2902535 L50.4417693,19.2902535 C50.2551442,19.2902535 50.0836054,19.1877348 49.9952104,19.0233719 L47.7502893,14.8491268 L36.9883175,14.8488451 L34.7414577,19.0235138 C34.653038,19.1877977 34.4815423,19.2902535 34.2949755,19.2902535 L30.6479856,19.2902535 C30.5641144,19.2902535 30.4815527,19.2694482 30.4076975,19.2297013 C30.1611079,19.0969937 30.0687882,18.7895126 30.2014958,18.5429229 L40.0371524,0.266866605 Z M38.9595851,11.1868732 L45.7804301,11.1871549 L42.3714161,4.84856338 L38.9595851,11.1868732 Z M109.154505,3.65765434 L109.142978,9.13915011 L115.239622,9.13915011 C117.200385,9.13915011 118.241148,8.67405913 118.76894,8.28374262 C119.354918,7.85029896 119.604954,7.30391789 119.604954,6.45688763 C119.604954,5.80036163 119.290145,3.65765434 115.239622,3.65765434 L109.154505,3.65765434 Z" id="Combined-Shape-Copy-2" fill="#222222"></path>
                <path d="M30.2763727,0.222075964 L20.3357511,18.6671464 C20.2250405,18.8725726 20.3018227,19.1288522 20.5072489,19.2395628 C20.5688496,19.2727613 20.6377312,19.2901408 20.7077082,19.2901408 L24.5606875,19.2901408 C24.7160739,19.2901408 24.8589224,19.2048547 24.9326424,19.0680691 L34.8735332,0.622998668 C34.9842462,0.417573679 34.907467,0.161293275 34.702042,0.0505803654 C34.6404403,0.0173803796 34.5715572,8.62813994e-16 34.5015786,8.75668865e-16 L30.6483299,0 C30.4929417,2.85443352e-17 30.3500918,0.0852880259 30.2763727,0.222075964 Z" id="Page-1" fill="#C92828"></path>
                <path d="M20.1355276,0.222075964 L10.194906,18.6671464 C10.0841954,18.8725726 10.1609776,19.1288522 10.3664039,19.2395628 C10.4280046,19.2727613 10.4968861,19.2901408 10.5668631,19.2901408 L14.4198425,19.2901408 C14.5752288,19.2901408 14.7180773,19.2048547 14.7917973,19.0680691 L24.7326883,0.622998668 C24.8434012,0.417573679 24.7666219,0.161293275 24.5611969,0.0505803654 C24.4995952,0.0173803796 24.4307121,8.62813994e-16 24.3607334,8.75668865e-16 L20.5074847,0 C20.3520966,2.85443352e-17 20.2092469,0.0852880259 20.1355276,0.222075964 Z" id="Page-1-Copy" fill="#FF5824"></path>
                <path d="M9.99468256,0.222075964 L0.0540609324,18.6671464 C-0.056649653,18.8725726 0.0201325577,19.1288522 0.2255588,19.2395628 C0.287159479,19.2727613 0.356041011,19.2901408 0.426018048,19.2901408 L4.27899738,19.2901408 C4.43438377,19.2901408 4.57723223,19.2048547 4.65095223,19.0680691 L14.5918432,0.622998668 C14.7025561,0.417573679 14.6257768,0.161293275 14.4203518,0.0505803654 C14.3587501,0.0173803796 14.289867,8.62813994e-16 14.2198883,8.75668865e-16 L10.3666397,0 C10.2112515,2.85443352e-17 10.0684018,0.0852880259 9.99468256,0.222075964 Z" id="Page-1-Copy-2" fill="#FA9043"></path>
            </g>
        </g>
    </g>
</svg>
